<svg xmlns="http://www.w3.org/2000/svg" width="40.275" height="24.48" viewBox="0 0 40.275 24.48"><defs><style>.a{fill:#2a2d34;}</style></defs><g transform="translate(-4.033 -22.06)"><path class="a" d="M79.274,49.195l-2.341-1.423-2.341-1.423,2.341-1.423L79.274,43.5l4.682,2.846Z" transform="translate(-39.648 -12.049)"/><path class="a" d="M43.995,56.344l-2.341-1.423L39.313,53.5l2.341-1.423,2.341-1.422h0l2.341,1.422L48.677,53.5l-2.341,1.423Z" transform="translate(-19.825 -16.066)"/><path class="a" d="M27.553,46.349l2.341-1.423L32.235,43.5l2.341,1.423,2.341,1.423-2.341,1.423-2.341,1.422h0l-3.57-2.17Z" transform="translate(-13.216 -12.049)"/><path class="a" d="M43.995,36.356h0l2.341,1.423L48.677,39.2l-2.341,1.423-2.341,1.423-2.341-1.423L39.313,39.2l2.341-1.423Z" transform="translate(-19.825 -8.033)"/><path class="a" d="M55.754,49.195h0l-2.341-1.422-2.341-1.423,2.341-1.423L55.754,43.5,58.1,44.926l2.341,1.423-1.111.676Z" transform="translate(-26.432 -12.049)"/><path class="a" d="M72.2,39.2l-2.341,1.423-2.341,1.423-2.341-1.423L62.832,39.2l2.341-1.423,2.341-1.423Z" transform="translate(-33.04 -8.033)"/><path class="a" d="M58.1,33.476,55.754,34.9h0l-2.341-1.423-2.341-1.422,2.341-1.423,2.341-1.423,4.682,2.846Z" transform="translate(-26.432 -4.016)"/><path class="a" d="M43.995,22.06l4.682,2.845-2.341,1.423-2.341,1.423-2.341-1.423-2.341-1.423Z" transform="translate(-19.825)"/><path class="a" d="M32.235,29.207l2.341,1.423,2.341,1.423-2.341,1.422L32.235,34.9h0l-2.341-1.423-2.341-1.422Z" transform="translate(-13.216 -4.016)"/><path class="a" d="M20.475,36.355l2.341,1.423L25.157,39.2l-2.341,1.423-2.341,1.423-2.341-1.423L15.793,39.2Z" transform="translate(-6.608 -8.033)"/><path class="a" d="M4.033,46.349,8.715,43.5l2.341,1.423L13.4,46.349l-2.341,1.423L8.715,49.195Z" transform="translate(0 -12.049)"/><path class="a" d="M18.134,52.074l2.341-1.422h0l1.211.736,3.471,2.11L23.83,54.3l-3.355,2.039L15.793,53.5Z" transform="translate(-6.608 -16.066)"/><path class="a" d="M30.839,58.648l1.4-.848,2.341,1.423,2.341,1.423-2.341,1.423-2.341,1.423-4.682-2.846Z" transform="translate(-13.216 -20.083)"/><path class="a" d="M43.995,70.64l-4.682-2.846,2.341-1.423,2.341-1.423,2.341,1.423,2.341,1.423Z" transform="translate(-19.825 -24.1)"/><path class="a" d="M55.754,63.492l-2.341-1.423-2.341-1.423,2.341-1.423L55.754,57.8l1.4.848,3.286,2Z" transform="translate(-26.432 -20.083)"/><path class="a" d="M67.514,56.344,64.159,54.3,62.832,53.5l3.471-2.11,1.211-.736h0l2.341,1.422L72.2,53.5Z" transform="translate(-33.04 -16.066)"/></g></svg>