<svg xmlns="http://www.w3.org/2000/svg" width="14.528" height="16.02" viewBox="0 0 14.528 16.02"><defs><style>.a{fill:#b8b8b8;}</style></defs><g transform="translate(-36.736 -39.99)"><g transform="translate(27.544 34.99)"><path class="a" d="M32.041,13.31c2.145,0,3.889-2.276,3.889-4.421a3.889,3.889,0,1,0-7.778,0C28.152,11.034,29.9,13.31,32.041,13.31Z" transform="translate(-15.585)"/><path class="a" d="M19.376,51.908a4.467,4.467,0,0,1-2.715.917h-.409a4.466,4.466,0,0,1-2.715-.917,5.177,5.177,0,0,0-4.344,5.109c0,1.415,3.252,2.562,7.264,2.562s7.264-1.147,7.264-2.562A5.177,5.177,0,0,0,19.376,51.908Z" transform="translate(0 -38.558)"/></g></g></svg>