<svg xmlns="http://www.w3.org/2000/svg" width="41.357" height="23.86" viewBox="0 0 41.357 23.86"><defs><style>.a{fill:#2a2d34;}</style></defs><g transform="translate(-0.5 -28)"><g transform="translate(0.5 28)"><g transform="translate(0 14.443)"><path class="a" d="M1.136,57.126H41.221a.6.6,0,0,0,.636-.636V51.336a.638.638,0,0,0-.636-.636H1.136a.638.638,0,0,0-.636.636V56.49A.6.6,0,0,0,1.136,57.126Z" transform="translate(-0.5 -50.7)"/></g><g transform="translate(2.291 22.142)"><rect class="a" width="5.345" height="1.718"/></g><g transform="translate(33.722 22.142)"><rect class="a" width="5.345" height="1.718"/></g><g transform="translate(1.845 10.562)"><path class="a" d="M41.067,45.236a.638.638,0,0,0-.636-.636H4.036a.638.638,0,0,0-.636.636v1.909H41.067V45.236Z" transform="translate(-3.4 -44.6)"/></g><g transform="translate(9.48 7.444)"><rect class="a" width="6.999" height="1.845"/></g><g transform="translate(3.627)"><path class="a" d="M40.3,37.289V29.909A1.914,1.914,0,0,0,38.395,28H8.109A1.914,1.914,0,0,0,6.2,29.909v7.444h4.645V34.872a.6.6,0,0,1,.636-.636h8.271a.6.6,0,0,1,.636.636v2.481h5.854V34.872a.638.638,0,0,1,.636-.636H35.15a.638.638,0,0,1,.636.636v2.481H40.3Z" transform="translate(-6.2 -28)"/></g><g transform="translate(24.878 7.444)"><rect class="a" width="6.999" height="1.845"/></g></g></g></svg>