<svg xmlns="http://www.w3.org/2000/svg" width="33.81" height="32.766" viewBox="0 0 33.81 32.766"><defs><style>.a{fill:#2a2d34;}</style></defs><g transform="translate(-23.779 -24.605)"><g transform="translate(23.779 24.605)"><path class="a" d="M29.138,18.929l.214.391a.3.3,0,0,0,.427.107l6.3-3.595a.3.3,0,0,0,.107-.427l-.214-.391a.3.3,0,0,0-.427-.107L29.28,18.5A.3.3,0,0,0,29.138,18.929Z" transform="translate(-19.635 -10.986)"/><path class="a" d="M42.273,26.352l-.605-1.068a.574.574,0,1,0-1,.569l.605,1.068a.574.574,0,0,0,1-.569Z" transform="translate(-27.04 -17.52)"/><path class="a" d="M45.785,33.785a.573.573,0,0,0-.214.783l.605,1.068a.573.573,0,0,0,.783.214h0a.573.573,0,0,0,.214-.783L46.568,34A.606.606,0,0,0,45.785,33.785Z" transform="translate(-30.197 -23.137)"/><path class="a" d="M34.785,28.485a.573.573,0,0,0-.214.783l.605,1.068a.574.574,0,0,0,1-.569L35.568,28.7A.606.606,0,0,0,34.785,28.485Z" transform="translate(-23.111 -19.723)"/><path class="a" d="M39.785,37.243a.573.573,0,0,0-.214.783l.605,1.068a.574.574,0,1,0,1-.569l-.605-1.068A.544.544,0,0,0,39.785,37.243Z" transform="translate(-26.332 -25.349)"/><path class="a" d="M46.885,21.585a.573.573,0,0,0-.214.783l.605,1.068a.574.574,0,0,0,1-.569L47.668,21.8A.606.606,0,0,0,46.885,21.585Z" transform="translate(-30.905 -15.279)"/><path class="a" d="M52.176,32.222a.573.573,0,0,0,.783.214h0a.573.573,0,0,0,.214-.783l-.605-1.068a.574.574,0,0,0-1,.569Z" transform="translate(-34.061 -20.934)"/><path class="a" d="M35.527,21.036H8.3V8.117A2.517,2.517,0,0,1,10.579,5.59a2.418,2.418,0,0,1,1.779.605l-.107.071A.931.931,0,0,0,11.9,7.512l.178.32a2.647,2.647,0,0,0-.285,2.847.244.244,0,0,0,.32.107l5.8-3.31a.232.232,0,0,0,.071-.32,2.627,2.627,0,0,0-2.6-1.21l-.178-.32A.931.931,0,0,0,13.96,5.27l-.107.071a4.277,4.277,0,0,0-3.345-1.352A4.135,4.135,0,0,0,6.664,8.152V21.036H3.283a.79.79,0,0,0-.783.783v1.744a.79.79,0,0,0,.783.783H35.527a.79.79,0,0,0,.783-.783V21.819A.79.79,0,0,0,35.527,21.036Z" transform="translate(-2.5 -3.982)"/><path class="a" d="M37.527,63.5H6.885a.306.306,0,0,0-.285.285v2.064a6.656,6.656,0,0,0,3.915,6.086l-.641,1.922a.942.942,0,0,0,.569,1.174h0a.942.942,0,0,0,1.174-.569l.676-1.957a9.4,9.4,0,0,0,1.032.071H31.121a10.057,10.057,0,0,0,1.032-.071l.676,1.957a.923.923,0,0,0,1.744-.605l-.641-1.922a6.7,6.7,0,0,0,3.915-6.086V63.785A.378.378,0,0,0,37.527,63.5Z" transform="translate(-5.141 -42.318)"/></g></g></svg>