<svg xmlns="http://www.w3.org/2000/svg" width="18.7" height="18.7" viewBox="0 0 18.7 18.7"><defs><style>.a{fill:#7b7b7b;fill-rule:evenodd;}</style></defs><path class="a" d="M9.35,1.662a28.67,28.67,0,0,1,3.74.1,4.819,4.819,0,0,1,1.766.312,3.649,3.649,0,0,1,1.766,1.766,4.819,4.819,0,0,1,.312,1.766c0,.935.1,1.247.1,3.74a28.67,28.67,0,0,1-.1,3.74,4.819,4.819,0,0,1-.312,1.766,3.649,3.649,0,0,1-1.766,1.766,4.819,4.819,0,0,1-1.766.312c-.935,0-1.247.1-3.74.1a28.67,28.67,0,0,1-3.74-.1,4.819,4.819,0,0,1-1.766-.312,3.649,3.649,0,0,1-1.766-1.766,4.819,4.819,0,0,1-.312-1.766c0-.935-.1-1.247-.1-3.74a28.67,28.67,0,0,1,.1-3.74,4.819,4.819,0,0,1,.312-1.766,3.731,3.731,0,0,1,.727-1.039,1.756,1.756,0,0,1,1.039-.727A4.819,4.819,0,0,1,5.61,1.766c.373-.041.647-.066,1.315-.092.216-.012.927-.012,2.425-.012M9.35,0A30.7,30.7,0,0,0,5.506.1,6.414,6.414,0,0,0,3.221.519,4.067,4.067,0,0,0,1.558,1.558,4.067,4.067,0,0,0,.519,3.221,4.734,4.734,0,0,0,.1,5.506,30.7,30.7,0,0,0,0,9.35a30.7,30.7,0,0,0,.1,3.844A6.414,6.414,0,0,0,.519,15.48a4.067,4.067,0,0,0,1.039,1.662,4.067,4.067,0,0,0,1.662,1.039,6.414,6.414,0,0,0,2.286.416,30.7,30.7,0,0,0,3.844.1,30.7,30.7,0,0,0,3.844-.1,6.414,6.414,0,0,0,2.286-.416,4.359,4.359,0,0,0,2.7-2.7,6.414,6.414,0,0,0,.416-2.286c0-1.039.1-1.351.1-3.844a30.7,30.7,0,0,0-.1-3.844,6.414,6.414,0,0,0-.416-2.286,4.067,4.067,0,0,0-1.039-1.662A4.067,4.067,0,0,0,15.48.519,6.414,6.414,0,0,0,13.194.1,30.7,30.7,0,0,0,9.35,0m0,4.571A4.7,4.7,0,0,0,4.571,9.35,4.779,4.779,0,1,0,9.35,4.571m0,7.9A3.061,3.061,0,0,1,6.233,9.35,3.061,3.061,0,0,1,9.35,6.233,3.061,3.061,0,0,1,12.467,9.35,3.061,3.061,0,0,1,9.35,12.467m4.987-9.246A1.143,1.143,0,1,0,15.48,4.363a1.153,1.153,0,0,0-1.143-1.143"/></svg>